# xmcd
#
# Track frame offsets:
#	150
#	23282
#	48551
#	65212
#	95309
#	116944
#	130154
#	160448
#	178352
#	192325
#	239369
#	253898
#	283003
#
# Disc length: 4374 seconds
#
# Revision: 0
# Processed by: cddbd v1.4PL0 Copyright (c) Steve Scherf et al.
# Submitted via: dBpowerAMP V4.0
#
DISCID=c511140d
DTITLE=JD Simo - One Night Stand
DYEAR=2003
DGENRE=Blues
TTITLE0=Freight Train
TTITLE1=Six String Blues
TTITLE2=Goin Down
TTITLE3=School House Blues
TTITLE4=Superstition
TTITLE5=Doin All Right
TTITLE6=Til The Morning Comes
TTITLE7=Capture Me
TTITLE8=Just Begun
TTITLE9=Texas Flood
TTITLE10=One Night Stand
TTITLE11=City Limits
TTITLE12=Mystery Bonus Track
EXTD=17 year old texas blues guitarist...http://www.jdsimo.com
EXTT0=
EXTT1=
EXTT2=
EXTT3=
EXTT4=
EXTT5=
EXTT6=
EXTT7=
EXTT8=
EXTT9=
EXTT10=
EXTT11=
EXTT12=
PLAYORDER=
